# xmcd
# Copyright (C) 1995-1998 Ti Kan
#
# Track frame offsets:
#       150
#       14785
#       38935
#       60991
#       77822
#       91854
#       110209
#       132412
#       150936
#       167572
#       192889
#       214164
#       235284
#       253433
#       277990
#
# Disc length: 3933 seconds
#
# Revision: 0
# Processed by: cddbd v1.5.2PL0 Copyright (c) Steve Scherf et al.
# Submitted via: CD-Import v1.0
#
DISCID=d00f5b0f
DTITLE=Various Artist - Songs About Leaving Africa
DYEAR=10
DGENRE=
TTITLE0=Rapturous - Money Talk
TTITLE1=Daara J Family - Unité
TTITLE2=K'naan - 15 Minutes Away
TTITLE3=Modenine Feat. Sage Hasson - Green Passport
TTITLE4=Matador Feat. Gor Mak - Xippil Xol
TTITLE5=Wanlov Feat. Babalaku and Saba Saba - Green Card
TTITLE6=Izé Feat. Omrane - Oh Narina
TTITLE7=Rouda - Paris Canaille ... Paris Racaille
TTITLE8=Afrikan Boy - Lidl
TTITLE9=V.a. Capsi Revolution - Immigration Clandestine
TTITLE10=Boobah Siddik Feta. Muntu Valdo - Hustle Jacket
TTITLE11=Dj Roch Feat. Kedjevara and Nash - Bigodra
TTITLE12=Awadi Feat. Kirikou - Sunugaal
TTITLE13=Dj Air Afrique Feat. Martin Pecheur and Zeegee - Bla Bla Bla
TTITLE14=Zubz - Time To Heal
EXTD=
EXTT0=
EXTT1=
EXTT2=
EXTT3=
EXTT4=
EXTT5=
EXTT6=
EXTT7=
EXTT8=
EXTT9=
EXTT10=
EXTT11=
EXTT12=
EXTT13=
EXTT14=
PLAYORDER=
